<?xml version="1.0" encoding="utf-8"?>
<!-- Generator: Adobe Illustrator 19.1.0, SVG Export Plug-In . SVG Version: 6.00 Build 0)  -->
<svg version="1.1" id="Layer_1" xmlns="http://www.w3.org/2000/svg" xmlns:xlink="http://www.w3.org/1999/xlink" x="0px" y="0px"
	 viewBox="0 0 124.8 146.9" style="enable-background:new 0 0 124.8 146.9;" xml:space="preserve">
<style type="text/css">
	.st0{fill:#EB585A;}
</style>
<g id="baby-unit">
	<path class="st0" d="M61,146.9c-2.6,0-5.1-0.1-6.8-0.2c-23.6-1.9-43.1-21.4-47-46.4C3,99.5,0,95.9,0,91.6c0-4.3,3.1-7.9,7.2-8.7
		C11.5,56.2,34.8,36.3,62,36.3c0.1,0,0.1,0,0.2,0c27.2,0.1,50.5,20.1,54.6,46.9c2.1,0.2,4,1.1,5.4,2.6c1.7,1.7,2.6,3.9,2.6,6.3
		s-0.9,4.6-2.6,6.2c-1.5,1.5-3.4,2.4-5.5,2.5c-4,24.9-23.3,44.1-46.4,45.9C68.1,146.8,64.5,146.9,61,146.9z M62,39.3
		c-26.1,0-48.4,19.4-52,45.2l-0.2,1.2l-1.3,0.1C5.5,85.9,3,88.5,3,91.6c0,3.1,2.4,5.7,5.6,5.8l1.3,0.1l0.2,1.2
		c3.2,24.2,21.9,43.2,44.4,45l0,0c3.9,0.3,11.9,0.2,15.8-0.1c22.1-1.7,40.5-20.5,43.9-44.6l0.2-1.4l1.4,0.1c0.2,0,0.3,0,0.4,0
		c1.6,0,3-0.6,4.1-1.7c1.1-1.1,1.7-2.6,1.7-4.1c0-1.6-0.6-3-1.7-4.1c-1.1-1.1-2.6-1.7-4.1-1.7c-0.1,0-0.2,0-0.3,0l-1.4,0.1l-0.3-1.4
		c-3.4-25.9-25.7-45.5-51.9-45.6C62.1,39.3,62.1,39.3,62,39.3z"/>
	<path class="st0" d="M61.4,135.9c0,0-0.1,0-0.1,0c-18-0.1-32.6-14.8-32.6-32.8c0-0.8,0.7-1.5,1.5-1.5c0,0,0,0,0,0l62.4,0.2
		c0.4,0,0.8,0.2,1.1,0.4s0.4,0.7,0.4,1.1C94.1,121.3,79.4,135.9,61.4,135.9z M31.8,104.6c0.7,15.7,13.7,28.2,29.6,28.3
		c0,0,0.1,0,0.1,0c15.8,0,28.8-12.5,29.7-28.1L31.8,104.6z"/>
	<circle class="st0" cx="41.4" cy="74.1" r="2.2"/>
	<circle class="st0" cx="81.9" cy="74.2" r="2.2"/>
	<path class="st0" d="M67.6,97.8C67.6,97.8,67.6,97.8,67.6,97.8c-0.8,0-1.5-0.7-1.5-1.5c0-2.5-2-4.5-4.5-4.5c0,0,0,0,0,0
		c-2.5,0-4.5,2-4.5,4.5c0,0.8-0.7,1.5-1.5,1.5c0,0,0,0,0,0c-0.8,0-1.5-0.7-1.5-1.5c0-4.1,3.4-7.5,7.5-7.5c0,0,0,0,0,0
		c4.1,0,7.5,3.4,7.5,7.5C69.1,97.1,68.4,97.8,67.6,97.8z"/>
	<path class="st0" d="M62.2,38.9c-0.2,0-0.3,0-0.5-0.1C50.6,35.2,44.5,23.1,48.1,12c1.4-4.4,4.5-8,8.7-10.1c4.1-2.1,8.8-2.4,13.3-1
		c7.4,2.4,11.5,10.5,9.1,17.9c-1,3-3,5.4-5.8,6.8c-2.8,1.4-5.9,1.6-8.9,0.7c-5-1.7-7.8-7.1-6.1-12.1c0.3-0.8,1.1-1.2,1.9-1
		c0.8,0.3,1.2,1.1,1,1.9c-1.1,3.5,0.8,7.2,4.2,8.4c2.2,0.7,4.5,0.5,6.6-0.5c2.1-1,3.6-2.8,4.3-5c0.9-2.8,0.7-5.9-0.6-8.5
		c-1.3-2.7-3.7-4.7-6.5-5.6c-3.6-1.2-7.5-0.9-11,0.8c-3.4,1.7-6,4.7-7.2,8.3c-3.2,9.6,2.1,20,11.7,23.1c0.8,0.3,1.2,1.1,1,1.9
		C63.4,38.5,62.8,38.9,62.2,38.9z"/>
</g>
</svg>
