<?xml version="1.0" encoding="utf-8"?>
<!-- Generator: Adobe Illustrator 19.1.0, SVG Export Plug-In . SVG Version: 6.00 Build 0)  -->
<svg version="1.1" id="Layer_1" xmlns="http://www.w3.org/2000/svg" xmlns:xlink="http://www.w3.org/1999/xlink" x="0px" y="0px"
	 viewBox="0 0 208.3 260.8" style="enable-background:new 0 0 208.3 260.8;" xml:space="preserve">
<style type="text/css">
	.st0{clip-path:url(#SVGID_2_);fill:#6A4121;}
	.st1{fill:#9D5D2C;}
	.st2{fill:#272626;}
	.st3{fill:#4B2F13;stroke:#000000;stroke-width:3;stroke-miterlimit:10;}
	.st4{fill:#785FA6;stroke:#000000;stroke-width:3;stroke-miterlimit:10;}
	.st5{fill:#FFFFFF;stroke:#000000;stroke-width:3;stroke-linecap:round;stroke-linejoin:round;stroke-miterlimit:10;}
	.st6{fill:none;stroke:#000000;stroke-width:3;stroke-linecap:round;stroke-linejoin:round;stroke-miterlimit:10;}
	.st7{fill:#E8A341;stroke:#000000;stroke-width:3;stroke-miterlimit:10;}
	.st8{fill:#A4CB6E;stroke:#000000;stroke-width:3;stroke-miterlimit:10;}
</style>
<g id="Basketball">
	<g>
		<defs>
			<rect id="SVGID_1_" x="0" y="191.8" width="61.2" height="61.4"/>
		</defs>
		<clipPath id="SVGID_2_">
			<use xlink:href="#SVGID_1_"  style="overflow:visible;"/>
		</clipPath>
		<path class="st0" d="M52.2,244.1C40.3,256,20.9,256,9,244.1C-3,232.1-3,212.8,9,200.8c11.9-11.9,31.3-11.9,43.3,0
			C64.2,212.8,64.2,232.1,52.2,244.1L52.2,244.1z M52.2,244.1"/>
	</g>
	<path class="st1" d="M49.4,232c-8.6,8.6-22.5,8.6-31,0c-8.6-8.6-8.6-22.5,0-31c8.6-8.6,22.5-8.6,31,0C58,209.5,58,223.4,49.4,232
		L49.4,232z M49.4,232"/>
	<path class="st2" d="M56.6,221.5c-6.5,0.5-12.7,3.2-17.5,7.6l9.4,9.4c0.5,0.5,0.5,1.4,0,1.9c-0.3,0.3-0.6,0.4-0.9,0.4
		c-0.3,0-0.7-0.1-0.9-0.4l-9.4-9.4c-4.4,4.8-7.1,11-7.6,17.5c-0.1,0.7-0.6,1.2-1.3,1.2c0,0-0.1,0-0.1,0c-0.7-0.1-1.3-0.7-1.2-1.4
		c0.5-7.2,3.5-13.9,8.3-19.2l-4.7-4.7l-16,16c-0.3,0.3-0.6,0.4-0.9,0.4c-0.3,0-0.7-0.1-0.9-0.4c-0.5-0.5-0.5-1.4,0-1.9l16-16
		l-4.7-4.7c-5.3,4.9-12.1,7.8-19.2,8.3c0,0-0.1,0-0.1,0c-0.7,0-1.3-0.5-1.3-1.2c-0.1-0.7,0.5-1.4,1.2-1.4c6.5-0.5,12.7-3.2,17.5-7.6
		l-9.4-9.4c-0.5-0.5-0.5-1.4,0-1.9c0.5-0.5,1.4-0.5,1.9,0L24,214c4.4-4.8,7.1-11,7.6-17.5c0.1-0.7,0.7-1.3,1.4-1.2
		c0.7,0.1,1.3,0.7,1.2,1.4c-0.5,7.2-3.5,13.9-8.3,19.2l4.7,4.7l16-16c0.5-0.5,1.4-0.5,1.9,0c0.5,0.5,0.5,1.4,0,1.9l-16,16l4.7,4.7
		c5.3-4.9,12.1-7.8,19.2-8.3c0.7-0.1,1.4,0.5,1.4,1.2C57.9,220.8,57.3,221.4,56.6,221.5L56.6,221.5z M56.6,221.5"/>
</g>
<g id="Boy">
	
		<rect x="125.6" y="212.5" transform="matrix(0.9247 -0.3807 0.3807 0.9247 -76.4287 66.5268)" class="st3" width="8.7" height="27.9"/>
	
		<rect x="170.6" y="194" transform="matrix(0.9247 -0.3807 0.3807 0.9247 -65.9873 82.2636)" class="st3" width="8.7" height="27.9"/>
	<g>
		<g>
			<path class="st4" d="M54.1,120l-6.4,6.3c13.7,13.9,36.2,14.1,50.1,0.5l-6.3-6.4C81.1,130.6,64.3,130.4,54.1,120z"/>
		</g>
	</g>
	<g>
		<g>
			<path class="st4" d="M161.6,90.9l8.3,3.5c-7.5,18-28.3,26.6-46.3,19.1l3.5-8.3C140.5,110.7,156,104.3,161.6,90.9z"/>
		</g>
	</g>
	<polygon class="st4" points="99,190 90,120.5 127.6,105 170.2,160.7 	"/>
	<path class="st3" d="M132.2,28.7c-0.2,0.1-0.3,0.1-0.5,0.2c-13.3-23-42-33.2-67.2-22.8C39.2,16.5,26,43.9,32.8,69.6
		c-3.5,1.6-5.2,5.8-3.7,9.4c1.5,3.6,5.6,5.4,9.3,4.1c12.1,20.8,36.7,31.2,60,25.2l3.5,8.6c1.7,4.1,6.4,6,10.4,4.4
		c4.1-1.7,6-6.4,4.4-10.4l-3.6-8.7c20.3-12.3,30.2-36.7,24.2-59.7c0.2-0.1,0.3-0.1,0.5-0.2c3.7-1.5,5.5-5.8,4-9.6
		C140.2,28.9,135.9,27.2,132.2,28.7z"/>
	<path class="st5" d="M60.6,79c6.6,15.9,24.8,23.5,40.7,17c15.9-6.6,23.5-24.8,17-40.7L60.6,79z"/>
	<circle class="st3" cx="48.8" cy="121.8" r="5.6"/>
	<circle class="st3" cx="167.9" cy="89.4" r="5.6"/>
	<circle cx="59.7" cy="47.9" r="2.2"/>
	<circle cx="97.3" cy="32.4" r="2.2"/>
	<path d="M41.5,16"/>
	<path class="st6" d="M81.4,62.9c-1.3-3.1,0.2-6.6,3.3-7.8s6.6,0.2,7.8,3.3"/>
	<path class="st7" d="M170.2,160.7L99,190l12.8,31.1l26.1-10.8c-1.7-5.1,0.8-10.6,5.8-12.7c5-2.1,10.7,0.1,13.1,4.9l26.1-10.8
		L170.2,160.7z"/>
	<path class="st8" d="M116.7,247.1l22.7-9.3l3.1,7.5c1.3,3.1-0.2,6.7-3.3,8l-17,7c-3.2,1.3-6.8-0.2-8.2-3.4l-0.7-1.6
		C111.9,252.1,113.5,248.4,116.7,247.1z"/>
	<path class="st8" d="M199,213.3l-22.7,9.3l3.1,7.5c1.3,3.1,4.9,4.6,8,3.3l17-7c3.2-1.3,4.7-5,3.4-8.2l-0.7-1.6
		C205.8,213.5,202.1,211.9,199,213.3z"/>
	<path d="M32.4,67.6C48.3,61,54.7,45.8,50,29.5c7.5,2.6,16,2.6,24-0.7c8.2-3.4,14.3-9.6,17.7-17.1c8.1,15.1,23.5,21.8,39.7,15.1
		C118,3.9,89.3-6.3,64.1,4.1C38.8,14.5,25.6,41.9,32.4,67.6z"/>
</g>
</svg>
