<?xml version="1.0" encoding="utf-8"?>
<!-- Generator: Adobe Illustrator 19.1.0, SVG Export Plug-In . SVG Version: 6.00 Build 0)  -->
<svg version="1.1" id="Layer_1" xmlns="http://www.w3.org/2000/svg" xmlns:xlink="http://www.w3.org/1999/xlink" x="0px" y="0px"
	 viewBox="0 0 1096.4 706.4" style="enable-background:new 0 0 1096.4 706.4;" xml:space="preserve">
<style type="text/css">
	.st0{fill:none;}
	.st1{fill:#EB585A;}
	.st2{fill:#785FA6;stroke:#000000;stroke-width:3;stroke-miterlimit:10;}
	.st3{fill:#64BAEA;stroke:#000000;stroke-width:3;stroke-miterlimit:10;}
	.st4{fill:#A4CB6E;stroke:#000000;stroke-width:3;stroke-miterlimit:10;}
	.st5{fill:#E8A341;stroke:#000000;stroke-width:3;stroke-miterlimit:10;}
	.st6{fill:#EB585A;stroke:#000000;stroke-width:3;stroke-miterlimit:10;}
	.st7{fill:#EB585A;stroke:#000000;stroke-width:3;stroke-linecap:round;stroke-linejoin:round;stroke-miterlimit:10;}
	.st8{fill:none;stroke:#000000;stroke-width:3;stroke-linecap:round;stroke-linejoin:round;stroke-miterlimit:10;}
	.st9{fill:#ECE768;stroke:#000000;stroke-width:3;stroke-linecap:round;stroke-linejoin:round;stroke-miterlimit:10;}
	.st10{fill:url(#SVGID_1_);stroke:#000000;stroke-width:3;stroke-miterlimit:10;}
	.st11{fill:#FFFFFF;}
	.st12{fill:#30441C;stroke:#000000;stroke-width:3;stroke-linecap:round;stroke-linejoin:round;stroke-miterlimit:10;}
	.st13{fill:#FDD9AA;}
	.st14{fill:#E8A341;}
	.st15{fill:#ECE768;stroke:#000000;stroke-width:3;stroke-miterlimit:10;}
	.st16{fill:#30441C;stroke:#000000;stroke-width:3;stroke-miterlimit:10;}
	.st17{fill:#74B734;stroke:#000000;stroke-width:3;stroke-miterlimit:10;}
	.st18{fill:#96C45B;}
	.st19{fill:#74B734;}
	.st20{fill:#A4CB6E;stroke:#000000;stroke-width:3;stroke-linecap:round;stroke-linejoin:round;stroke-miterlimit:10;}
</style>
<pattern  x="255.4" width="50.3" height="28.8" patternUnits="userSpaceOnUse" id="New_Pattern" viewBox="7.3 -36.2 50.3 28.8" style="overflow:visible;">
	<g>
		<polygon class="st0" points="7.3,-36.2 57.7,-36.2 57.7,-7.3 7.3,-7.3 		"/>
		<path class="st1" d="M65-7.3C65-3.3,61.7,0,57.7,0s-7.3-3.3-7.3-7.3s3.3-7.3,7.3-7.3S65-11.4,65-7.3z"/>
		<path class="st1" d="M14.7-7.3c0,4.1-3.3,7.3-7.3,7.3S0-3.3,0-7.3s3.3-7.3,7.3-7.3S14.7-11.4,14.7-7.3z"/>
		<path class="st1" d="M65-36.2c0,4.1-3.3,7.3-7.3,7.3s-7.3-3.3-7.3-7.3s3.3-7.3,7.3-7.3S65-40.2,65-36.2z"/>
		<path class="st1" d="M39.8-21.8c0,4.1-3.3,7.3-7.3,7.3s-7.3-3.3-7.3-7.3s3.3-7.3,7.3-7.3S39.8-25.8,39.8-21.8z"/>
		<path class="st1" d="M14.7-36.2c0,4.1-3.3,7.3-7.3,7.3S0-32.1,0-36.2s3.3-7.3,7.3-7.3S14.7-40.2,14.7-36.2z"/>
	</g>
</pattern>
<g id="Rainbow">
	<path class="st2" d="M574.9,208.8c271.2,0,491.8,220.6,491.8,491.8h29.7c0-287.6-233.9-521.5-521.5-521.5
		C287.3,179.1,53.4,413,53.4,700.6h29.7C83.1,429.4,303.7,208.8,574.9,208.8z"/>
	<path class="st3" d="M574.9,238.6c254.8,0,462,207.3,462,462h29.7c0-271.2-220.6-491.8-491.8-491.8S83.1,429.4,83.1,700.6h29.7
		C112.9,445.8,320.1,238.6,574.9,238.6z"/>
	<path class="st4" d="M574.9,268.3c238.4,0,432.3,193.9,432.3,432.3h29.7c0-254.8-207.3-462-462-462s-462,207.3-462,462h29.7
		C142.6,462.2,336.5,268.3,574.9,268.3z"/>
	<path class="st5" d="M574.9,298.1c222,0,402.5,180.6,402.5,402.5h29.7c0-238.4-193.9-432.3-432.3-432.3S142.6,462.2,142.6,700.6
		h29.7C172.4,478.6,352.9,298.1,574.9,298.1z"/>
	<path class="st6" d="M574.9,327.8c205.6,0,372.8,167.2,372.8,372.8h29.7c0-222-180.6-402.5-402.5-402.5S172.4,478.6,172.4,700.6
		h29.7C202.1,495,369.3,327.8,574.9,327.8z"/>
</g>
<g id="Boy">
	<rect x="348" y="655.8" class="st5" width="8.7" height="27.9"/>
	<rect x="396.6" y="655.8" class="st5" width="8.7" height="27.9"/>
	<g>
		<g>
			<path class="st7" d="M333.2,592h-9c0-19.5,15.9-35.4,35.4-35.4v9C345,565.6,333.2,577.4,333.2,592z"/>
		</g>
	</g>
	<g>
		<g>
			<path class="st7" d="M433.2,556.5l6.4,6.4c-13.8,13.8-36.3,13.8-50.1,0l6.4-6.4C406.1,566.8,422.9,566.8,433.2,556.5z"/>
		</g>
	</g>
	<polygon class="st7" points="337.6,624.2 355.7,556.6 396.4,556.6 414.5,624.2 	"/>
	<path class="st5" d="M429.6,487.7c-0.2,0-0.3,0-0.5,0c-3.6-26.4-26.2-46.7-53.5-46.7c-27.3,0-49.9,20.3-53.5,46.7
		c-3.9,0.2-7,3.4-7,7.3c0,3.9,3.1,7.1,7,7.3c3.2,23.9,22.1,42.8,45.9,46.2v9.3c0,4.4,3.6,8,8,8c4.4,0,8-3.6,8-8v-9.4
		c23.4-3.7,41.9-22.4,45.1-46c0.2,0,0.3,0,0.5,0c4.1,0,7.3-3.3,7.3-7.3C437,491,433.7,487.7,429.6,487.7z"/>
	<path class="st8" d="M410.1,501.2c0,19.1-15.4,34.5-34.5,34.5s-34.5-15.4-34.5-34.5"/>
	<circle class="st1" cx="341.1" cy="500.4" r="7.3"/>
	<circle class="st5" cx="328.2" cy="594.4" r="5.6"/>
	<circle class="st5" cx="439.6" cy="557.5" r="5.6"/>
	<circle cx="355.4" cy="477.9" r="2.2"/>
	<circle cx="395.9" cy="477.9" r="2.2"/>
	<circle class="st1" cx="410.1" cy="500.4" r="7.3"/>
	<path d="M350.6,448.2"/>
	<path class="st9" d="M378.6,464.5c-12.7,4.3-54.1-7.3-54.1-7.3s25.9-34.4,38.6-38.7c12.7-4.3,26.5,2.5,30.8,15.2
		C398.1,446.5,391.3,460.2,378.6,464.5z"/>
	<path class="st9" d="M335.1,452.7c0,0,19.9-26.4,29.7-29.7s20.3,1.9,23.6,11.7"/>
	<path class="st9" d="M412.8,441.1c5.3,3.4,13.3,22,13.3,22s-20.2,0.6-25.6-2.8c-5.3-3.4-6.9-10.4-3.5-15.8
		C400.5,439.3,407.5,437.7,412.8,441.1z"/>
	<path class="st8" d="M401.7,447.9c2-3.1,6-4,9.1-2c3.1,2,7.7,12.7,7.7,12.7"/>
	<path class="st8" d="M369.6,500.1c0-3.3,2.7-6,6-6c3.3,0,6,2.7,6,6"/>
	<path class="st3" d="M414.5,624.2h-76.9v33.6h28.3c0.4-5.3,4.8-9.5,10.2-9.5c5.4,0,9.8,4.2,10.2,9.5h28.3V624.2z"/>
	<path class="st4" d="M332.1,683.8h24.5v8.1c0,3.4-2.7,6.1-6.1,6.1h-18.4c-3.5,0-6.3-2.8-6.3-6.3v-1.8
		C325.9,686.6,328.7,683.8,332.1,683.8z"/>
	<path class="st4" d="M421.1,683.8h-24.5v8.1c0,3.4,2.7,6.1,6.1,6.1h18.4c3.5,0,6.3-2.8,6.3-6.3v-1.8
		C427.4,686.6,424.6,683.8,421.1,683.8z"/>
</g>
<g id="Girl">
	<path class="st5" d="M631.8,457.5c-1.8,0.9-4.1,0.2-5-1.7c-0.9-1.8-0.2-4.1,1.7-5c-1.8,0.9-4.1,0.2-5-1.7c-0.9-1.8-0.2-4.1,1.7-5
		c-1.8,0.9-4.1,0.2-5-1.7c-0.4-0.9-0.5-1.9-0.2-2.8l-22.5,25.7l34.2-1.3c-0.7-0.4-1.3-0.9-1.6-1.6
		C629.3,460.7,630,458.4,631.8,457.5z"/>
	<path class="st5" d="M472.4,446.7c1.9,0.7,3,2.8,2.3,4.7c-0.7,1.9-2.8,3-4.7,2.3c1.9,0.7,3,2.8,2.3,4.7c-0.7,1.9-2.8,3-4.7,2.3
		c1.9,0.7,3,2.8,2.3,4.7c-0.3,1-1,1.7-1.8,2.1l34.1-2.2l-25.1-23.3c0.2,0.7,0.2,1.5,0,2.3C476.5,446.3,474.4,447.3,472.4,446.7z"/>
	<rect x="523" y="655.8" class="st9" width="8.7" height="27.9"/>
	<rect x="571.6" y="655.8" class="st9" width="8.7" height="27.9"/>
	<g>
		<path class="st9" d="M508.2,592h-9c0-19.5,15.9-35.4,35.4-35.4v9C520,565.6,508.2,577.4,508.2,592z"/>
	</g>
	<g>
		<path class="st9" d="M608.2,556.5l6.4,6.4c-13.8,13.8-36.3,13.8-50.1,0l6.4-6.4C581.1,566.8,597.9,566.8,608.2,556.5z"/>
	</g>
	<polygon class="st2" points="512.6,655.8 530.7,556.6 571.4,556.6 589.5,655.8 	"/>
	<pattern  id="SVGID_1_" xlink:href="#New_Pattern" patternTransform="matrix(0.6 0 0 0.6 -3298.853 -2840.9731)">
	</pattern>
	<polygon class="st10" points="512.6,655.8 530.7,556.6 571.4,556.6 589.5,655.8 	"/>
	<path class="st9" d="M604.6,487.7c-0.2,0-0.3,0-0.5,0c-3.6-26.4-26.2-46.7-53.5-46.7c-27.3,0-49.9,20.3-53.5,46.7
		c-3.9,0.2-7,3.4-7,7.3c0,3.9,3.1,7.1,7,7.3c3.2,23.9,22.1,42.8,45.9,46.2v9.3c0,4.4,3.6,8,8,8c4.4,0,8-3.6,8-8v-9.4
		c23.4-3.7,41.9-22.4,45.1-46c0.2,0,0.3,0,0.5,0c4.1,0,7.3-3.3,7.3-7.3C612,491,608.7,487.7,604.6,487.7z"/>
	<path class="st8" d="M585.1,501.2c0,19.1-15.4,34.5-34.5,34.5s-34.5-15.4-34.5-34.5"/>
	<circle class="st1" cx="516.1" cy="500.4" r="7.3"/>
	<circle class="st9" cx="503.2" cy="594.4" r="5.6"/>
	<circle class="st9" cx="614.6" cy="557.5" r="5.6"/>
	<circle cx="530.4" cy="477.9" r="2.2"/>
	<circle cx="570.9" cy="477.9" r="2.2"/>
	<circle class="st1" cx="585.1" cy="500.4" r="7.3"/>
	<path d="M525.6,448.2"/>
	<path class="st5" d="M541.2,462.1c-8.4,4.6-37.9,3.9-37.9,3.9s15.4-25.1,23.8-29.7s18.4-2.6,22.3,4.6S549.6,457.5,541.2,462.1z"/>
	<path class="st8" d="M510.3,462.6c0,0,11.8-19.3,18.3-22.8c6.5-3.5,14.2-2,17.2,3.5"/>
	<path class="st5" d="M560.8,462.1c8.4,4.6,37.9,3.9,37.9,3.9s-15.4-25.1-23.8-29.7c-8.4-4.6-18.4-2.6-22.3,4.6
		S552.3,457.5,560.8,462.1z"/>
	<path class="st8" d="M591.6,462.6c0,0-11.8-19.3-18.3-22.8c-6.5-3.5-14.2-2-17.2,3.5"/>
	<path class="st7" d="M507.1,683.8h24.5v8.1c0,3.4-2.7,6.1-6.1,6.1h-18.4c-3.5,0-6.3-2.8-6.3-6.3v-1.8
		C500.9,686.6,503.7,683.8,507.1,683.8z"/>
	<path class="st7" d="M596.1,683.8h-24.5v8.1c0,3.4,2.7,6.1,6.1,6.1h18.4c3.5,0,6.3-2.8,6.3-6.3v-1.8
		C602.4,686.6,599.6,683.8,596.1,683.8z"/>
	<g>
		<polygon class="st6" points="503.2,449.4 512.3,452.8 503.9,461.7 		"/>
		<polygon class="st6" points="502,480.8 493,477.5 501.4,468.6 		"/>
		<circle class="st6" cx="502.6" cy="465.1" r="3.7"/>
	</g>
	<g>
		<polygon class="st6" points="598,448.4 589,451.8 597.4,460.7 		"/>
		<polygon class="st6" points="599.2,479.8 608.3,476.5 599.9,467.6 		"/>
		<circle class="st6" cx="598.6" cy="464.1" r="3.7"/>
	</g>
	<path class="st8" d="M550.5,490.5v12.8c0,0-0.8-5.4-6.3-5.4"/>
</g>
<g id="Ball">
	<path class="st11" d="M321.6,671.5l1.7-5.4c-2.5-3.6-6.3-6.3-10.6-7.6l-4.5,3.2v6.5l7.2,5.2L321.6,671.5z M321.6,671.5"/>
	<path class="st11" d="M326.9,677.1l-4.6-3.3l-6.3,2.1l-2.7,8.3l3.9,5.4l5.7,0c2.5-3.3,4-7.5,4-12
		C326.9,677.4,326.9,677.2,326.9,677.1L326.9,677.1z M326.9,677.1"/>
	<path class="st11" d="M298.2,675.8l-6.4-2.1l-4.5,3.3c0,0.2,0,0.4,0,0.5c0,4.4,1.5,8.5,3.9,11.8l5.6,0l4-5.5L298.2,675.8z
		 M298.2,675.8"/>
	<path class="st11" d="M298.7,673.4l7.1-5.2v-6.5l-4.4-3.2c-4.3,1.3-8,4-10.6,7.7l1.7,5.2L298.7,673.4z M298.7,673.4"/>
	<path class="st11" d="M302.7,685.3l-4,5.5l1.8,5.4c2.1,0.7,4.3,1.1,6.6,1.1c2.2,0,4.4-0.4,6.4-1.1l1.8-5.4l-4-5.6H302.7z
		 M302.7,685.3"/>
	<path d="M307.1,655.3c-12.2,0-22.2,10-22.2,22.2c0,12.2,10,22.2,22.2,22.2c12.2,0,22.2-10,22.2-22.2
		C329.3,665.3,319.3,655.3,307.1,655.3L307.1,655.3z M308.2,661.8l4.5-3.2c4.3,1.3,8,4,10.6,7.6l-1.7,5.4l-6.1,2l-7.2-5.2V661.8z
		 M301.4,658.5l4.4,3.2v6.5l-7.1,5.2l-6.2-2l-1.7-5.2C293.3,662.6,297,659.8,301.4,658.5L301.4,658.5z M291.2,689.3
		c-2.5-3.3-3.9-7.4-3.9-11.8c0-0.2,0-0.4,0-0.5l4.5-3.3l6.4,2.1l2.6,8.1l-4,5.5L291.2,689.3z M313.4,696.3c-2,0.7-4.1,1.1-6.4,1.1
		c-2.3,0-4.5-0.4-6.6-1.1l-1.8-5.4l4-5.5h8.4l4,5.6L313.4,696.3z M317.2,689.4l-3.9-5.4l2.7-8.3l6.3-2.1l4.6,3.3c0,0.1,0,0.3,0,0.4
		c0,4.5-1.5,8.6-4,12L317.2,689.4z M317.2,689.4"/>
</g>
<g id="Flower">
	<path class="st1" d="M667.5,594.1c0-4-3.3-7.3-7.3-7.3c-4,0-7.3,3.3-7.3,7.3c0,4,3.3,7.3,7.3,7.3
		C664.2,601.4,667.5,598.1,667.5,594.1L667.5,594.1z"/>
	<line class="st12" x1="660.2" y1="612.9" x2="660.2" y2="698.3"/>
	<path class="st13" d="M671.1,576l0,3.3L671.1,576c0-6-4.9-10.8-10.9-10.8C666.2,565.1,671.1,570,671.1,576L671.1,576z"/>
	<path class="st14" d="M658.2,615.6"/>
	<path class="st15" d="M688,585.3c-1.5-4.5-5.6-7.5-10.4-7.5c-1.1,0-2.2,0.2-3.3,0.5l-3.2,1l0-3.3c0-6-4.9-10.8-10.9-10.8
		c-6,0-10.9,4.9-10.9,10.8l0,3.3l-3.2-1c-1.1-0.3-2.2-0.5-3.3-0.5c-4.7,0-8.9,3-10.4,7.5c-1.8,5.7,1.3,11.8,6.9,13.7l3.2,1l-1.9,2.7
		c-3.5,4.9-2.4,11.7,2.4,15.2c1.9,1.4,4.1,2.1,6.4,2.1c2.1,0,4.1-0.6,5.9-1.7c1.1-0.7,2.1-1.6,2.9-2.7l2-2.7l2,2.7
		c0.8,1.1,1.8,2,2.9,2.7c1.7,1.1,3.8,1.7,5.9,1.7c2.3,0,4.5-0.7,6.4-2.1c4.8-3.5,5.9-10.3,2.4-15.2l-1.9-2.7l3.2-1
		C686.7,597.1,689.8,591,688,585.3z M660.2,586.8c4,0,7.3,3.3,7.3,7.3c0,4-3.3,7.3-7.3,7.3c-4,0-7.3-3.3-7.3-7.3
		C652.8,590.1,656.1,586.8,660.2,586.8"/>
	<line class="st16" x1="660.2" y1="666.1" x2="645.6" y2="655.6"/>
	<line class="st16" x1="660.4" y1="653.5" x2="670.9" y2="639"/>
	<path class="st17" d="M643.8,643.7c3.6,4.3,1.6,11.8,1.6,11.8s-7.8,0.6-11.3-3.7c-3.6-4.3-1.6-11.8-1.6-11.8
		S640.2,639.4,643.8,643.7z"/>
	<path class="st17" d="M681.7,637.9c-4.3,3.6-11.8,1.6-11.8,1.6s-0.6-7.8,3.7-11.3c4.3-3.6,11.8-1.6,11.8-1.6S686,634.3,681.7,637.9
		z"/>
</g>
<g id="Sun">
	<circle class="st9" cx="112.9" cy="168.1" r="63.5"/>
	<line class="st8" x1="112.9" y1="104.6" x2="112.9" y2="62.7"/>
	<line class="st8" x1="91.2" y1="108.4" x2="76.8" y2="69"/>
	<line class="st8" x1="57.9" y1="136.3" x2="21.6" y2="115.4"/>
	<line class="st8" x1="50.4" y1="179.1" x2="9.1" y2="186.4"/>
	<line class="st8" x1="72.1" y1="216.7" x2="62.8" y2="227.7"/>
	<line class="st8" x1="91.2" y1="227.7" x2="82.1" y2="252.5"/>
	<line class="st8" x1="112.9" y1="231.5" x2="112.9" y2="273.5"/>
	<line class="st8" x1="153.7" y1="216.7" x2="167.1" y2="232.8"/>
	<line class="st8" x1="167.8" y1="199.8" x2="204.2" y2="220.8"/>
	<line class="st8" x1="175.4" y1="157.1" x2="196" y2="153.4"/>
	<line class="st8" x1="167.8" y1="136.3" x2="204.2" y2="115.4"/>
	<line class="st8" x1="153.7" y1="119.5" x2="180.6" y2="87.3"/>
	<line class="st8" x1="134.6" y1="108.4" x2="142.3" y2="87.2"/>
</g>
<g id="Cloud_1_">
	<path class="st11" d="M349.7,215.3c-0.4-27.3-22.6-50.2-49.9-50.2c-17.4,0-33.8,9.4-42.8,23c-4-2.6-8.7-4.2-13.9-4.2
		c-13.9,0-25.1,11.2-25.1,25.1c0,0.5,0,0.9,0.1,1.4c0,0.6-0.1,1.1-0.1,1.7c-12.5,6-21.9,20.2-21.9,35c0,20.4,16.7,37.1,37.1,37.1
		H310c0.4,0,0.8,0,1.3-0.1c0.4,0,0.9,0.1,1.3,0.1h30.7c19,0,34.6-15.6,34.6-34.6C377.9,232.9,365.7,218.3,349.7,215.3L349.7,215.3z"
		/>
	<path class="st11" d="M349.7,215.3"/>
	<path class="st8" d="M349.7,215.3c-0.4-27.3-22.6-50.2-49.9-50.2c-17.4,0-33.8,9.4-42.8,23c-4-2.6-8.7-4.2-13.9-4.2
		c-13.9,0-25.1,11.2-25.1,25.1c0,0.5,0,0.9,0.1,1.4c0,0.6-0.1,1.1-0.1,1.7c-12.5,6-21.9,20.2-21.9,35c0,20.4,16.7,37.1,37.1,37.1
		H310c0.4,0,0.8,0,1.3-0.1c0.4,0,0.9,0.1,1.3,0.1h30.7c19,0,34.6-15.6,34.6-34.6C377.9,232.9,365.7,218.3,349.7,215.3L349.7,215.3z"
		/>
	<path class="st8" d="M349.7,215.3"/>
</g>
<g id="Cloud_2">
	<path class="st11" d="M522.2,194.2c-0.2-16.2-13.4-29.7-29.6-29.7c-10.3,0-20,5.6-25.4,13.6c-2.4-1.6-5.2-2.5-8.2-2.5
		c-8.2,0-14.9,6.7-14.9,14.9c0,0.3,0,0.6,0,0.8c0,0.3,0,0.7,0,1c-7.4,3.5-13,12-13,20.7c0,12.1,9.9,22,22,22h45.5c0.3,0,0.5,0,0.8,0
		c0.3,0,0.5,0,0.8,0h18.2c11.3,0,20.5-9.2,20.5-20.5C538.9,204.6,531.6,196,522.2,194.2L522.2,194.2z"/>
	<path class="st11" d="M522.2,194.2"/>
	<path class="st8" d="M522.2,194.2c-0.2-16.2-13.4-29.7-29.6-29.7c-10.3,0-20,5.6-25.4,13.6c-2.4-1.6-5.2-2.5-8.2-2.5
		c-8.2,0-14.9,6.6-14.9,14.9c0,0.3,0,0.6,0,0.8c0,0.3,0,0.7,0,1c-7.4,3.5-13,12-13,20.7c0,12.1,9.9,22,22,22h45.5c0.3,0,0.5,0,0.8,0
		c0.3,0,0.5,0,0.8,0h18.2c11.3,0,20.5-9.2,20.5-20.5C538.9,204.6,531.6,196,522.2,194.2L522.2,194.2z"/>
	<path class="st8" d="M522.2,194.2"/>
</g>
<g id="Grass">
	<path class="st18" d="M668.2,704.4"/>
	<path class="st19" d="M738.7,699.5"/>
	<path id="Grass_6" class="st20" d="M711,683.9c2.3-5.5,6-12.5,11.7-18.4c-0.6,1-1.2,2.2-1.7,3.3c-3.4,6.9-7.5,17.4-8,29.1h-6.3
		C707.1,695.2,708.4,689.9,711,683.9L711,683.9z"/>
	<path id="Grass_5" class="st20" d="M709.2,665.1c-2.6,7.6-3.6,15.1-3.9,20.7c-0.3,5.4-0.1,9.8,0.1,12.1h-6.1
		c0.1-5.4,0.7-12.7,3-19.8C704,672.9,706.3,668.5,709.2,665.1L709.2,665.1z"/>
	<path id="Grass_4" class="st20" d="M705,652.5c-2.1,7.7-4.6,19-3.6,26.3c-0.6,1.3-1.1,2.7-1.5,4.2c-0.5,1.6-1,3.3-1.3,4.9
		c-0.4-2.1-1-4.3-1.7-6.4c-0.1-0.4-0.3-0.8-0.4-1.2C697.2,674.1,699.5,661.6,705,652.5L705,652.5z"/>
	<path id="Grass_3" class="st20" d="M686.5,662.1c3.3,3.8,6,8.7,7.9,14.5c2.5,7.7,3.1,15.6,3.2,21.3h-6.8c0.2-2.5,0.5-7.2,0.1-13.1
		C690.6,678.7,689.5,670.4,686.5,662.1L686.5,662.1z"/>
	<path id="Grass_2" class="st20" d="M671.7,662.4c6.4,6.5,10.6,14.2,13.2,20.4c2.7,6.5,4.1,12.3,4.7,15.1h-7
		c-0.5-12.4-4.9-23.7-8.6-31.1C673.3,665.2,672.5,663.8,671.7,662.4L671.7,662.4z"/>
	<path id="Grass_1" class="st20" d="M667.2,677.6c-1.2-2.2-2.4-4.2-3.6-6c8.8,7.9,15,21.1,17.2,26.4h-5.9
		C674.7,693.2,672.1,686.3,667.2,677.6L667.2,677.6z"/>
	<path d="M664.2,677.6"/>
	<line class="st12" x1="652.5" y1="698.9" x2="738.7" y2="698.9"/>
</g>
</svg>
