<?xml version="1.0" encoding="utf-8"?>
<!-- Generator: Adobe Illustrator 19.1.0, SVG Export Plug-In . SVG Version: 6.00 Build 0)  -->
<svg version="1.1" id="Layer_1" xmlns="http://www.w3.org/2000/svg" xmlns:xlink="http://www.w3.org/1999/xlink" x="0px" y="0px"
	 viewBox="0 0 124.8 131" style="enable-background:new 0 0 124.8 131;" xml:space="preserve">
<style type="text/css">
	.st0{fill:#EB585A;}
</style>
<g id="preschool-unit">
	<path class="st0" d="M21.2,38.4c-0.3,0-0.6-0.1-0.9-0.3c-0.7-0.5-0.8-1.4-0.3-2.1c0.8-1.1,20.3-26.8,30.4-30.3
		c5.1-1.7,10.6-1.4,15.4,1s8.4,6.5,10.2,11.6c0.3,0.8-0.2,1.6-0.9,1.9c-0.8,0.3-1.6-0.2-1.9-0.9c-3-9-12.8-13.8-21.7-10.7
		c-9.2,3.1-28.8,29-29,29.2C22.1,38.2,21.7,38.4,21.2,38.4z"/>
	<path class="st0" d="M104.5,44.3c-0.6,0-1.1-0.3-1.4-0.9c-1.7-4-5.1-10.8-7.1-12c-1.1-0.7-2.5-1-3.8-0.7c-1.3,0.3-2.5,1.1-3.2,2.2
		c-0.4,0.7-1.4,0.9-2.1,0.5c-0.7-0.4-0.9-1.4-0.5-2.1c1.2-1.8,3-3.1,5.1-3.5c2.1-0.5,4.3-0.1,6.1,1.1c3.3,2.1,7.4,11.5,8.2,13.4
		c0.3,0.8,0,1.6-0.8,2C104.9,44.2,104.7,44.3,104.5,44.3z"/>
	<path class="st0" d="M18.8,45.1c-0.1,0-0.2,0-0.4,0c-4.9-1.2-8.2-2.1-8.2-2.1c-0.5-0.1-0.9-0.5-1-1c-0.2-0.5-0.1-1,0.2-1.4
		c1.1-1.4,26.3-34.8,39.3-39.2c6.5-2.2,13.5-1.7,19.7,1.3c6.2,3,10.8,8.3,13,14.8c0.9,2.5,1.3,5.2,1.4,7.9c0,0.8-0.6,1.5-1.5,1.5
		c-0.9,0-1.5-0.7-1.5-1.5c0-2.4-0.4-4.7-1.2-7c-1.9-5.8-6-10.4-11.5-13.1c-5.4-2.7-11.6-3.1-17.4-1.2c-10.5,3.6-31,29.3-36.5,36.4
		c1.4,0.4,3.5,0.9,6,1.5c0.8,0.2,1.3,1,1.1,1.8C20.1,44.6,19.4,45.1,18.8,45.1z"/>
	<path class="st0" d="M108.6,48.8c-0.2,0-0.5,0-0.8,0c-0.8,0-1.5-0.7-1.5-1.5c0-0.8,0.7-1.5,1.5-1.5c0.2,0,0.5,0,0.7,0
		c0.5,0,1,0,1.4,0c-2.7-6-8.2-17-11.8-19.3C94.2,24,89,24.6,85.8,28c-0.6,0.6-1.5,0.6-2.1,0c-0.6-0.6-0.6-1.5,0-2.1
		c4.2-4.3,11-5.1,16.2-1.8c5.5,3.5,13,20.7,13.9,22.7c0.2,0.5,0.2,1-0.1,1.4s-0.7,0.7-1.2,0.7C112.2,48.8,110.8,48.8,108.6,48.8z"/>
	<path class="st0" d="M61.4,120.1c0,0-0.1,0-0.1,0c-18-0.1-32.6-14.8-32.6-32.8c0-0.8,0.7-1.5,1.5-1.5c0,0,0,0,0,0L92.6,86
		c0.8,0,1.5,0.7,1.5,1.5C94.1,105.5,79.4,120.1,61.4,120.1z M31.8,88.8c0.7,15.7,13.7,28.2,29.6,28.3c0,0,0.1,0,0.1,0
		c15.8,0,28.8-12.5,29.7-28.1L31.8,88.8z"/>
	<circle class="st0" cx="41.4" cy="58.2" r="2.2"/>
	<circle class="st0" cx="81.9" cy="58.3" r="2.2"/>
	<path class="st0" d="M67.6,81.9C67.6,81.9,67.6,81.9,67.6,81.9c-0.8,0-1.5-0.7-1.5-1.5c0-2.5-2-4.5-4.5-4.5c0,0,0,0,0,0
		c-2.5,0-4.5,2-4.5,4.5c0,0.8-0.7,1.5-1.5,1.5c0,0,0,0,0,0c-0.8,0-1.5-0.7-1.5-1.5c0-4.1,3.4-7.5,7.5-7.5c0,0,0,0,0,0
		c4.1,0,7.5,3.4,7.5,7.5C69.1,81.3,68.4,81.9,67.6,81.9z"/>
	<g>
		<g>
			<path class="st0" d="M61,131c-2.6,0-5.1-0.1-6.8-0.2c-23.6-1.9-43.1-21.4-47-46.4C3,83.6,0,80,0,75.7c0-4.3,3.1-7.9,7.2-8.7
				c1.4-8.8,5-17.2,10.3-24.4l0.6-0.8l1,0.2c5.9,1.4,14.6,3.4,23.1,4.7l-0.2,3h-9.1c-3.3,0-6,2.7-6,6v5c0,3.3,2.7,6,6,6h15.9
				c3.3,0,6-2.7,6-6v-5c0-2-1-3.9-2.7-5l-4.7-3.1l5.6,0.3c5.1,0.3,8.9,0.1,11.2-0.7c9.4-3.2,15.6-12,15.5-21.9l0-2.2l2.1,0.8
				c1.2,0.4,2.4,1,3.6,1.5l1.9,0.9L85.8,28c-0.5,0.5-0.9,1-1.3,1.6c-1.4,2.2-1.9,4.9-1.3,7.5c0.6,2.6,2.1,4.8,4.3,6.2
				c2.5,1.6,9.9,2.5,20.3,2.6l0.8,0l0.4,0.7c4,6.4,6.6,13.4,7.7,20.7c2.1,0.2,4,1.1,5.4,2.6c1.7,1.7,2.6,3.9,2.6,6.3
				s-0.9,4.6-2.6,6.2c-1.5,1.5-3.4,2.4-5.5,2.5c-4,24.9-23.3,44.1-46.4,45.9C68.1,130.9,64.5,131,61,131z M19.4,45.3
				c-5,6.9-8.2,15-9.4,23.4l-0.2,1.2l-1.3,0.1C5.5,70,3,72.6,3,75.7c0,3.1,2.4,5.7,5.6,5.8l1.3,0.1l0.2,1.2
				c3.2,24.2,21.9,43.2,44.4,45c3.9,0.3,11.9,0.2,15.8-0.1c22.1-1.7,40.5-20.5,43.9-44.6l0.2-1.4l1.4,0.1c0.2,0,0.3,0,0.4,0
				c1.6,0,3-0.6,4.1-1.7c1.1-1.1,1.7-2.6,1.7-4.1c0-1.6-0.6-3-1.7-4.1c-1.1-1.1-2.6-1.7-4.1-1.7h0c-0.1,0-0.2,0-0.3,0l-1.4,0.1
				L114,69c-0.9-7.2-3.3-13.9-7.1-20.1c-7.7-0.1-17.4-0.7-21.1-3c-2.9-1.9-4.9-4.7-5.7-8.1c0-0.2-0.1-0.4-0.1-0.6
				c-2.9,6-8.2,10.8-14.9,13.1c-2.1,0.7-5,1.1-8.7,1c0.8,1.4,1.3,3,1.3,4.6v5c0,4.9-4,9-9,9H32.9c-4.9,0-9-4-9-9v-5
				c0-3.7,2.3-6.9,5.5-8.3C25.7,46.8,22.2,46,19.4,45.3z"/>
			<path class="st0" d="M52.9,51.1C52.9,51.1,52.8,51.1,52.9,51.1c-3.3-0.2-7-0.6-11.1-1.3c-0.8-0.1-1.3-0.8-1.3-1.6
				s0.7-1.4,1.5-1.4h6.8c0.7,0,1.2,0.4,1.4,1c1,0.1,1.9,0.2,2.8,0.2c0.8,0.1,1.5,0.8,1.4,1.6C54.4,50.4,53.7,51.1,52.9,51.1z"/>
			<path class="st0" d="M48.8,69.8H32.9c-4.9,0-9-4-9-9v-5c0-4.9,4-9,9-9l9.3,0c4,0.6,7.7,1,10.8,1.2l0.4,0l0.3,0.2
				c2.5,1.7,4,4.5,4,7.5v5C57.8,65.8,53.8,69.8,48.8,69.8z M32.9,49.8c-3.3,0-6,2.7-6,6v5c0,3.3,2.7,6,6,6h15.9c3.3,0,6-2.7,6-6v-5
				c0-1.9-0.9-3.6-2.4-4.8c-3.1-0.2-6.6-0.6-10.5-1.2H32.9z"/>
		</g>
	</g>
	<path class="st0" d="M89.9,69.8H74c-4.9,0-9-4-9-9v-5c0-4.9,4-9,9-9h15.9c4.9,0,9,4,9,9v5C98.9,65.8,94.9,69.8,89.9,69.8z M74,49.8
		c-3.3,0-6,2.7-6,6v5c0,3.3,2.7,6,6,6h15.9c3.3,0,6-2.7,6-6v-5c0-3.3-2.7-6-6-6H74z"/>
	<path class="st0" d="M66.6,59.8c-0.4,0-0.8-0.2-1.1-0.5c0,0-1.8-1.9-4.1-1.9c-1.4,0-2.7,0.6-4,1.9c-0.6,0.6-1.5,0.6-2.1,0
		s-0.6-1.5,0-2.1c1.9-1.9,4-2.9,6.2-2.8c3.6,0.1,6.1,2.7,6.2,2.9c0.6,0.6,0.5,1.6-0.1,2.1C67.3,59.7,66.9,59.8,66.6,59.8z"/>
</g>
</svg>
