<?xml version="1.0" encoding="utf-8"?>
<!-- Generator: Adobe Illustrator 19.1.0, SVG Export Plug-In . SVG Version: 6.00 Build 0)  -->
<svg version="1.1" id="Layer_1" xmlns="http://www.w3.org/2000/svg" xmlns:xlink="http://www.w3.org/1999/xlink" x="0px" y="0px"
	 viewBox="0 0 156.4 158.1" style="enable-background:new 0 0 156.4 158.1;" xml:space="preserve">
<style type="text/css">
	.st0{fill:#9782BB;}
</style>
<g>
	<g>
		<g>
			<path class="st0" d="M4.5,157.3c-0.5,0-0.9-0.4-0.9-0.9v-14.3c0-0.5,0.4-0.9,0.9-0.9h2V69.6l-4.3,1.6c-0.1,0-0.2,0.1-0.3,0.1
				c-0.2,0-0.4-0.1-0.5-0.2c-0.3-0.2-0.4-0.5-0.4-0.8v-6c0-0.4,0.2-0.7,0.6-0.9L49.9,45v-1.8h-4.6c-0.4,0-0.8-0.3-0.9-0.6
				c-0.1-0.4,0-0.8,0.3-1l32.5-24.9V2c0-0.4,0.3-0.8,0.6-0.9l0,0c0.2,0,0.9-0.3,1.3-0.3c1.1-0.2,2.3-0.3,3.6-0.3
				c2.2,0,4.4,0.3,6.5,0.6c2.2,0.3,4.2,0.6,6.2,0.6c1.6,0,3.1-0.2,4.4-0.6c0.1,0,0.2,0,0.3,0c0.2,0,0.4,0.1,0.6,0.2
				c0.2,0.2,0.4,0.5,0.4,0.7v8.6c0,0.4-0.3,0.8-0.7,0.9c-1.5,0.4-3.1,0.6-4.9,0.6c-2.2,0-4.4-0.3-6.5-0.6C87,11.3,84.9,11,82.9,11
				c-1.1,0-2.1,0.1-3,0.2l-0.7,0.1v5.2l32.5,24.9c0.3,0.2,0.4,0.7,0.3,1.1c-0.1,0.4-0.5,0.6-0.9,0.6h-4.6V45L155,63.4
				c0.4,0.1,0.6,0.5,0.6,0.9v6c0,0.3-0.2,0.6-0.4,0.8c-0.2,0.1-0.3,0.2-0.5,0.2c-0.1,0-0.2,0-0.3-0.1l-4.3-1.6v71.6h2
				c0.5,0,0.9,0.4,0.9,0.9v14.3c0,0.5-0.4,0.9-0.9,0.9H4.5z M107.6,155.4H151v-2.9h-15c-0.5,0-0.9-0.4-0.9-0.9
				c0-0.5,0.4-0.9,0.9-0.9h15v-2.8h-8.6c-0.5,0-0.9-0.4-0.9-0.9c0-0.5,0.4-0.9,0.9-0.9h8.6V143h-43.4v2.9h8.6c0.5,0,0.9,0.4,0.9,0.9
				c0,0.5-0.4,0.9-0.9,0.9h-8.6v2.8h4.4c0.5,0,0.9,0.4,0.9,0.9c0,0.5-0.4,0.9-0.9,0.9h-4.4V155.4z M102.1,155.4h3.7V134h-3.7V155.4z
				 M56.3,155.4h43.9v-4.9H56.3V155.4z M50.7,155.4h3.7V134h-3.7V155.4z M5.4,155.4h43.4v-2.9h-4.4c-0.5,0-0.9-0.4-0.9-0.9
				s0.4-0.9,0.9-0.9h4.4v-2.8h-8.6c-0.5,0-0.9-0.4-0.9-0.9c0-0.5,0.4-0.9,0.9-0.9h8.6V143H5.4v2.9H14c0.5,0,0.9,0.4,0.9,0.9
				c0,0.5-0.4,0.9-0.9,0.9H5.4v2.8h15c0.5,0,0.9,0.4,0.9,0.9s-0.4,0.9-0.9,0.9h-15V155.4z M56.3,148.7h43.9v-4.1H56.3V148.7z
				 M56.3,142.7h43.9v-3.8H56.3V142.7z M104.4,132.1h2.3c0.5,0,0.9,0.4,0.9,0.9v8.1h40.5V68.9l-43.6-16.6v58.4l5.1,3.4
				c0.3,0.2,0.4,0.5,0.4,0.8v6.9c0,0.3-0.2,0.7-0.5,0.8c-0.1,0.1-0.3,0.1-0.4,0.1c-0.2,0-0.4-0.1-0.5-0.2l-4.2-2.8V132.1z M8.3,68.9
				v72.3h40.5v-8.1c0-0.5,0.4-0.9,0.9-0.9H52v-12.5l-4.2,2.8c-0.2,0.1-0.3,0.2-0.5,0.2c-0.2,0-0.3,0-0.4-0.1
				c-0.3-0.2-0.5-0.5-0.5-0.8v-6.9c0-0.3,0.2-0.6,0.4-0.8l5.1-3.4V52.3L8.3,68.9z M94.7,119.8c0.5,0,0.9,0.4,0.9,0.9V137h4.5v-3.9
				c0-0.5,0.4-0.9,0.9-0.9h1.4v-13.8l-24.3-16.2l-3.6,2.4l1.4,0.6c0.3,0.2,0.5,0.5,0.5,0.8c0,0.5-0.4,0.9-0.9,0.9H71l-5.6,3.7h15.9
				c0.5,0,0.9,0.4,0.9,0.9s-0.4,0.9-0.9,0.9H62.5l-8.6,5.8v13.8h1.4c0.5,0,0.9,0.4,0.9,0.9v3.9h4.5v-16.3c0-0.5,0.4-0.9,0.9-0.9
				H94.7z M88.2,137h5.6v-15.4h-5.6V137z M79.2,137h7.1v-15.4h-7.1V137z M70.2,137h7.1v-15.4h-7.1V137z M62.6,137h5.6v-15.4h-5.6
				V137z M48.3,115.3v4.6l29.4-19.6c0.2-0.1,0.3-0.2,0.5-0.2c0.2,0,0.4,0.1,0.5,0.2l29.4,19.6v-4.6l-30-20L48.3,115.3z M53.8,109.4
				l5.1-3.4V51h-5.1V109.4z M97.5,105.9l5.1,3.4V51h-5.1V105.9z M60.8,104.7l16.9-11.3c0.2-0.1,0.3-0.2,0.5-0.2s0.4,0.1,0.5,0.2
				l16.9,11.3V51h-1c-0.5,0-0.9-0.4-0.9-0.9v-6.9h-31V50c0,0.5-0.4,0.9-0.9,0.9h-1V104.7z M106.5,51l47.2,18v-4l-47.2-18V51z
				 M2.7,65v4l47.2-18l0-4L2.7,65z M95.6,49.1h9.1v-5.9h-9.1V49.1z M51.8,49.1h9.1v-5.9h-9.1L51.8,49.1z M48.1,41.3h60.2L78.2,18.2
				L61.8,30.8h3.4c0.5,0,0.9,0.4,0.9,0.9s-0.4,0.9-0.9,0.9h-5.9l-4.6,3.5h11.5c0.5,0,0.9,0.4,0.9,0.9s-0.4,0.9-0.9,0.9H52.3
				L48.1,41.3z M82.9,9.1c2.2,0,4.4,0.3,6.5,0.6c2.2,0.3,4.2,0.6,6.2,0.6c1.1,0,2.1-0.1,3-0.2l0.7-0.1V3.3l-1,0.1
				c-0.9,0.1-1.8,0.2-2.7,0.2c-2.2,0-4.4-0.3-6.5-0.6c-2.2-0.3-4.2-0.6-6.2-0.6c-1.1,0-2.1,0.1-3,0.2l-0.7,0.1v6.7l1-0.1
				C81,9.2,81.9,9.1,82.9,9.1z"/>
		</g>
		<g>
			<path class="st0" d="M74.3,65.7c-0.5,0-0.9-0.4-0.9-0.9v-8.3c0-2.6,2.1-4.7,4.7-4.7h0.4c2.6,0,4.7,2.1,4.7,4.7v8.3
				c0,0.5-0.4,0.9-0.9,0.9H74.3z M78,53.7c-1.6,0-2.8,1.3-2.8,2.8v7.3h6v-7.3c0-1.6-1.3-2.8-2.8-2.8H78z"/>
		</g>
		<g>
			<path class="st0" d="M74.3,86c-0.5,0-0.9-0.4-0.9-0.9v-8.3c0-2.6,2.1-4.7,4.7-4.7h0.4c2.6,0,4.7,2.1,4.7,4.7v8.3
				c0,0.5-0.4,0.9-0.9,0.9H74.3z M78,74c-1.6,0-2.8,1.3-2.8,2.8v7.3h6v-7.3c0-1.6-1.3-2.8-2.8-2.8H78z"/>
		</g>
		<g>
			<path class="st0" d="M16.1,87.5c-0.5,0-0.9-0.4-0.9-0.9v-8.3c0-2.6,2.1-4.7,4.7-4.7h0.4c2.6,0,4.7,2.1,4.7,4.7v8.3
				c0,0.5-0.4,0.9-0.9,0.9H16.1z M19.9,75.5c-1.6,0-2.8,1.3-2.8,2.8v7.3h6v-7.3c0-1.6-1.3-2.8-2.8-2.8H19.9z"/>
		</g>
		<g>
			<path class="st0" d="M33,87.5c-0.5,0-0.9-0.4-0.9-0.9v-8.3c0-2.6,2.1-4.7,4.7-4.7h0.4c2.6,0,4.7,2.1,4.7,4.7v8.3
				c0,0.5-0.4,0.9-0.9,0.9H33z M36.8,75.5c-1.6,0-2.8,1.3-2.8,2.8v7.3h6v-7.3c0-1.6-1.3-2.8-2.8-2.8H36.8z"/>
		</g>
		<g>
			<path class="st0" d="M16.1,110.4c-0.5,0-0.9-0.4-0.9-0.9v-8.3c0-2.6,2.1-4.7,4.7-4.7h0.4c2.6,0,4.7,2.1,4.7,4.7v8.3
				c0,0.5-0.4,0.9-0.9,0.9H16.1z M19.9,98.4c-1.6,0-2.8,1.3-2.8,2.8v7.3h6v-7.3c0-1.6-1.3-2.8-2.8-2.8H19.9z"/>
		</g>
		<g>
			<path class="st0" d="M33,110.4c-0.5,0-0.9-0.4-0.9-0.9v-8.3c0-2.6,2.1-4.7,4.7-4.7h0.4c2.6,0,4.7,2.1,4.7,4.7v8.3
				c0,0.5-0.4,0.9-0.9,0.9H33z M36.8,98.4c-1.6,0-2.8,1.3-2.8,2.8v7.3h6v-7.3c0-1.6-1.3-2.8-2.8-2.8H36.8z"/>
		</g>
		<g>
			<path class="st0" d="M16.1,133.3c-0.5,0-0.9-0.4-0.9-0.9v-8.3c0-2.6,2.1-4.7,4.7-4.7h0.4c2.6,0,4.7,2.1,4.7,4.7v8.3
				c0,0.5-0.4,0.9-0.9,0.9H16.1z M19.9,121.3c-1.6,0-2.8,1.3-2.8,2.8v7.3h6v-7.3c0-1.6-1.3-2.8-2.8-2.8H19.9z"/>
		</g>
		<g>
			<path class="st0" d="M33,133.3c-0.5,0-0.9-0.4-0.9-0.9v-8.3c0-2.6,2.1-4.7,4.7-4.7h0.4c2.6,0,4.7,2.1,4.7,4.7v8.3
				c0,0.5-0.4,0.9-0.9,0.9H33z M36.8,121.3c-1.6,0-2.8,1.3-2.8,2.8v7.3h6v-7.3c0-1.6-1.3-2.8-2.8-2.8H36.8z"/>
		</g>
		<g>
			<path class="st0" d="M132.4,87.5c-0.5,0-0.9-0.4-0.9-0.9v-8.3c0-2.6,2.1-4.7,4.7-4.7h0.4c2.6,0,4.7,2.1,4.7,4.7v8.3
				c0,0.5-0.4,0.9-0.9,0.9H132.4z M136.2,75.5c-1.6,0-2.8,1.3-2.8,2.8v7.3h6v-7.3c0-1.6-1.3-2.8-2.8-2.8H136.2z"/>
		</g>
		<g>
			<path class="st0" d="M115.5,87.5c-0.5,0-0.9-0.4-0.9-0.9v-8.3c0-2.6,2.1-4.7,4.7-4.7h0.4c2.6,0,4.7,2.1,4.7,4.7v8.3
				c0,0.5-0.4,0.9-0.9,0.9H115.5z M119.3,75.5c-1.6,0-2.8,1.3-2.8,2.8v7.3h6v-7.3c0-1.6-1.3-2.8-2.8-2.8H119.3z"/>
		</g>
		<g>
			<path class="st0" d="M132.4,110.4c-0.5,0-0.9-0.4-0.9-0.9v-8.3c0-2.6,2.1-4.7,4.7-4.7h0.4c2.6,0,4.7,2.1,4.7,4.7v8.3
				c0,0.5-0.4,0.9-0.9,0.9H132.4z M136.2,98.4c-1.6,0-2.8,1.3-2.8,2.8v7.3h6v-7.3c0-1.6-1.3-2.8-2.8-2.8H136.2z"/>
		</g>
		<g>
			<path class="st0" d="M115.5,110.4c-0.5,0-0.9-0.4-0.9-0.9v-8.3c0-2.6,2.1-4.7,4.7-4.7h0.4c2.6,0,4.7,2.1,4.7,4.7v8.3
				c0,0.5-0.4,0.9-0.9,0.9H115.5z M119.3,98.4c-1.6,0-2.8,1.3-2.8,2.8v7.3h6v-7.3c0-1.6-1.3-2.8-2.8-2.8H119.3z"/>
		</g>
		<g>
			<path class="st0" d="M132.4,133.3c-0.5,0-0.9-0.4-0.9-0.9v-8.3c0-2.6,2.1-4.7,4.7-4.7h0.4c2.6,0,4.7,2.1,4.7,4.7v8.3
				c0,0.5-0.4,0.9-0.9,0.9H132.4z M136.2,121.3c-1.6,0-2.8,1.3-2.8,2.8v7.3h6v-7.3c0-1.6-1.3-2.8-2.8-2.8H136.2z"/>
		</g>
		<g>
			<path class="st0" d="M115.5,133.3c-0.5,0-0.9-0.4-0.9-0.9v-8.3c0-2.6,2.1-4.7,4.7-4.7h0.4c2.6,0,4.7,2.1,4.7,4.7v8.3
				c0,0.5-0.4,0.9-0.9,0.9H115.5z M119.3,121.3c-1.6,0-2.8,1.3-2.8,2.8v7.3h6v-7.3c0-1.6-1.3-2.8-2.8-2.8H119.3z"/>
		</g>
		<g>
			<path class="st0" d="M78.2,37.5c-3,0-5.4-2.4-5.4-5.4c0-3,2.4-5.4,5.4-5.4c3,0,5.4,2.4,5.4,5.4C83.7,35.1,81.2,37.5,78.2,37.5z
				 M78.2,28.5c-2,0-3.6,1.6-3.6,3.6s1.6,3.6,3.6,3.6c2,0,3.6-1.6,3.6-3.6S80.2,28.5,78.2,28.5z"/>
		</g>
		<g>
			<path class="st0" d="M67,47.7c-0.5,0-0.9-0.4-0.9-0.9c0-0.5,0.4-0.9,0.9-0.9h11.5c0.5,0,0.9,0.4,0.9,0.9c0,0.5-0.4,0.9-0.9,0.9
				H67z"/>
		</g>
		<g>
			<path class="st0" d="M44.3,59.9c-0.5,0-0.9-0.4-0.9-0.9s0.4-0.9,0.9-0.9h3.9c0.5,0,0.9,0.4,0.9,0.9s-0.4,0.9-0.9,0.9H44.3z"/>
		</g>
		<g>
			<path class="st0" d="M38.2,64.9c-0.5,0-0.9-0.4-0.9-0.9c0-0.5,0.4-0.9,0.9-0.9h10.1c0.5,0,0.9,0.4,0.9,0.9c0,0.5-0.4,0.9-0.9,0.9
				H38.2z"/>
		</g>
		<g>
			<path class="st0" d="M108.2,59.9c-0.5,0-0.9-0.4-0.9-0.9s0.4-0.9,0.9-0.9h3.9c0.5,0,0.9,0.4,0.9,0.9s-0.4,0.9-0.9,0.9H108.2z"/>
		</g>
		<g>
			<path class="st0" d="M108.2,64.9c-0.5,0-0.9-0.4-0.9-0.9c0-0.5,0.4-0.9,0.9-0.9h10.1c0.5,0,0.9,0.4,0.9,0.9
				c0,0.5-0.4,0.9-0.9,0.9H108.2z"/>
		</g>
		<g>
			<path class="st0" d="M11.8,138.3c-0.5,0-0.9-0.4-0.9-0.9s0.4-0.9,0.9-0.9h7.9c0.5,0,0.9,0.4,0.9,0.9s-0.4,0.9-0.9,0.9H11.8z"/>
		</g>
		<g>
			<path class="st0" d="M24.4,138.3c-0.2,0-0.5-0.1-0.7-0.3c-0.2-0.2-0.3-0.4-0.3-0.7c0-0.2,0.1-0.5,0.3-0.7
				c0.2-0.2,0.4-0.3,0.7-0.3c0.2,0,0.5,0.1,0.7,0.3c0.2,0.2,0.3,0.4,0.3,0.7c0,0.2-0.1,0.5-0.3,0.7
				C24.8,138.2,24.6,138.3,24.4,138.3z"/>
		</g>
		<g>
			<path class="st0" d="M85,70.5c-0.5,0-0.9-0.4-0.9-0.9c0-0.5,0.4-0.9,0.9-0.9h3.1c0.5,0,0.9,0.4,0.9,0.9c0,0.5-0.4,0.9-0.9,0.9H85
				z"/>
		</g>
		<g>
			<path class="st0" d="M87.8,75c-0.5,0-0.9-0.4-0.9-0.9s0.4-0.9,0.9-0.9h3.1c0.5,0,0.9,0.4,0.9,0.9S91.5,75,90.9,75H87.8z"/>
		</g>
		<g>
			<path class="st0" d="M65.9,89.9c-0.5,0-0.9-0.4-0.9-0.9s0.4-0.9,0.9-0.9H69c0.5,0,0.9,0.4,0.9,0.9s-0.4,0.9-0.9,0.9H65.9z"/>
		</g>
		<g>
			<path class="st0" d="M129.4,94.2c-0.5,0-0.9-0.4-0.9-0.9c0-0.5,0.4-0.9,0.9-0.9h3.1c0.5,0,0.9,0.4,0.9,0.9c0,0.5-0.4,0.9-0.9,0.9
				H129.4z"/>
		</g>
	</g>
</g>
</svg>
