<?xml version="1.0" encoding="utf-8"?>
<!-- Generator: Adobe Illustrator 19.1.0, SVG Export Plug-In . SVG Version: 6.00 Build 0)  -->
<svg version="1.1" id="Layer_1" xmlns="http://www.w3.org/2000/svg" xmlns:xlink="http://www.w3.org/1999/xlink" x="0px" y="0px"
	 viewBox="0 0 124.8 110.7" style="enable-background:new 0 0 124.8 110.7;" xml:space="preserve">
<style type="text/css">
	.st0{fill:#EB585A;}
</style>
<path class="st0" d="M116.8,49.9h-1.7c-16.6,0-29.2-11-32-27.7c-6.2,4.9-13.8,7.5-21.7,7.5c-7.7,0-15.2-2.5-21.3-7.2
	c-2.9,16.5-15.2,27-32,27H6.4l0.2-1.7C10.4,20.5,34,0,61.6,0c0.1,0,0.1,0,0.2,0c27.6,0.1,51.2,20.8,54.8,48.2L116.8,49.9z M85.4,16
	l0.3,3c1.6,16.3,12.4,27,27.6,27.8C109.2,21.8,87.3,3.1,61.7,3c-0.1,0-0.1,0-0.2,0C36.1,3,14.2,21.5,9.9,46.5
	c15.1-0.8,25.8-11.2,27.6-27l0.3-2.9l2.2,1.9c5.9,5.3,13.5,8.2,21.4,8.2c8.1,0,15.9-3,21.9-8.6L85.4,16z"/>
<path class="st0" d="M61,110.7c-2.6,0-5.1-0.1-6.8-0.2l0,0C30.6,108.6,11,89.1,7.2,64C3,63.2,0,59.6,0,55.3c0-4.3,3.1-7.9,7.2-8.7
	C11.5,20,34.8,0,62,0c0.1,0,0.1,0,0.2,0c27.2,0.1,50.5,20.1,54.6,46.9c2.1,0.2,4,1.1,5.4,2.6c1.7,1.7,2.6,3.9,2.6,6.3
	s-0.9,4.6-2.6,6.2c-1.5,1.5-3.4,2.4-5.5,2.5c-4,24.9-23.3,44.1-46.4,45.9C68.1,110.6,64.5,110.7,61,110.7z M62,3
	C35.9,3,13.6,22.4,10,48.3l-0.2,1.2l-1.3,0.1C5.5,49.7,3,52.2,3,55.3c0,3.1,2.4,5.7,5.6,5.8l1.3,0.1l0.2,1.2
	c3.2,24.2,21.9,43.2,44.4,45l0,0c3.9,0.3,11.9,0.2,15.8-0.1c22.1-1.7,40.5-20.5,43.9-44.6l0.2-1.4l1.4,0.1c0.2,0,0.3,0,0.4,0
	c1.6,0,3-0.6,4.1-1.7c1.1-1.1,1.7-2.6,1.7-4.1c0-1.6-0.6-3-1.7-4.1c-1.1-1.1-2.6-1.7-4.1-1.7c-0.1,0-0.2,0-0.3,0l-1.4,0.1l-0.3-1.4
	C110.6,22.7,88.3,3.1,62.2,3C62.1,3,62.1,3,62,3z"/>
<path class="st0" d="M61.4,99.7c0,0-0.1,0-0.1,0c-18-0.1-32.6-14.8-32.6-32.8c0-0.8,0.7-1.5,1.5-1.5c0,0,0,0,0,0l62.4,0.2
	c0.4,0,0.8,0.2,1.1,0.4s0.4,0.7,0.4,1.1C94.1,85.1,79.4,99.7,61.4,99.7z M31.8,68.4c0.7,15.7,13.7,28.2,29.6,28.3c0,0,0.1,0,0.1,0
	c15.8,0,28.8-12.5,29.7-28.1L31.8,68.4z"/>
<circle class="st0" cx="41.4" cy="37.8" r="2.2"/>
<circle class="st0" cx="81.9" cy="37.9" r="2.2"/>
<path class="st0" d="M67.6,61.6C67.6,61.6,67.6,61.6,67.6,61.6c-0.8,0-1.5-0.7-1.5-1.5c0-2.5-2-4.5-4.5-4.5c0,0,0,0,0,0
	c-2.5,0-4.5,2-4.5,4.5c0,0.8-0.7,1.5-1.5,1.5c0,0,0,0,0,0c-0.8,0-1.5-0.7-1.5-1.5c0-4.1,3.4-7.5,7.5-7.5c0,0,0,0,0,0
	c4.1,0,7.5,3.4,7.5,7.5C69.1,60.9,68.4,61.6,67.6,61.6z"/>
</svg>
